# xmcd
#
# Track frame offsets: 
#        187
#        11690
#        22960
#        37767
#        57552
#        72850
#        86000
#        103107
#        121597
#        136357
#
# Disc length: 2060 seconds
#
# Revision: 12
# Processed by: cddbd v1.5.2PL0 Copyright (c) Steve Scherf et al.
# Submitted via: ExactAudioCopy v0.90b4
#
DISCID=7a080a0a
DTITLE=Kelly Willis - Kelly Willis
DYEAR=1993
DGENRE=Country
TTITLE0=Take It All Out On You
TTITLE1=Heaven's Just A Sin Away
TTITLE2=One More Night
TTITLE3=That'll Be Me
TTITLE4=Whatever Way The Wind Blows
TTITLE5=Get Real
TTITLE6=I Know Better Now
TTITLE7=Up All Night
TTITLE8=World Without You
TTITLE9=Shadows Of Love
EXTD=1993 MCA Records, Inc.\n\n YEAR: 1993
EXTT0=
EXTT1=
EXTT2=
EXTT3=(duet with Kevin Welch)
EXTT4=
EXTT5=
EXTT6=
EXTT7=
EXTT8=
EXTT9=
PLAYORDER=
